<mxfile host="app.diagrams.net" modified="2025-07-21T01:46:08.790Z" agent="Mozilla/5.0 (Windows NT 10.0; Win64; x64) AppleWebKit/537.36 (KHTML, like Gecko) Chrome/138.0.0.0 Safari/537.36" etag="qV8f-Fm89WnS97_XfI-H" version="24.6.4" type="device">
  <diagram name="Page-1" id="9R8-J17w3S0R6oO3g1S6">
    <mxGraphModel dx="1290" dy="728" grid="1" gridSize="10" guides="1" tooltips="1" connect="1" arrows="1" fold="1" page="1" pageEnabled="1" pageScale="1" pageWidth="850" pageHeight="1100" background="#FFFFFF" math="0" shadow="0">
      <root>
        <mxCell id="0" />
        <mxCell id="1" parent="0" />
        <mxCell id="T82bKqfR7qC3l-Xf6_zX-1" value="&lt;u&gt;User&lt;/u&gt;" style="html=1;whiteSpace=wrap;align=center;verticalAlign=top;fontStyle=1;width=100;" vertex="1" parent="1">
          <mxGeometry x="100" y="80" width="160" height="200" as="geometry" />
        </mxCell>
        <mxCell id="T82bKqfR7qC3l-Xf6_zX-2" value="- id: bigint&lt;br&gt;- name: varchar&lt;br&gt;- email: varchar&lt;br&gt;- email_verified_at: timestamp&lt;br&gt;- password: varchar&lt;br&gt;- remember_token: varchar&lt;br&gt;- deleted_at: timestamp&lt;br&gt;- created_at: timestamp&lt;br&gt;- updated_at: timestamp" style="html=1;whiteSpace=wrap;align=left;verticalAlign=top;width=100;" vertex="1" parent="T82bKqfR7qC3l-Xf6_zX-1">
          <mxGeometry y="26" width="100" height="174" as="geometry" />
        </mxCell>
        <mxCell id="T82bKqfR7qC3l-Xf6_zX-3" value="&lt;u&gt;Resident&lt;/u&gt;" style="html=1;whiteSpace=wrap;align=center;verticalAlign=top;fontStyle=1;width=100;" vertex="1" parent="1">
          <mxGeometry x="100" y="380" width="160" height="150" as="geometry" />
        </mxCell>
        <mxCell id="T82bKqfR7qC3l-Xf6_zX-4" value="- id: bigint&lt;br&gt;- user_id: bigint&lt;br&gt;- avatar: varchar&lt;br&gt;- phone_number: varchar&lt;br&gt;- deleted_at: timestamp&lt;br&gt;- created_at: timestamp&lt;br&gt;- updated_at: timestamp" style="html=1;whiteSpace=wrap;align=left;verticalAlign=top;width=100;" vertex="1" parent="T82bKqfR7qC3l-Xf6_zX-3">
          <mxGeometry y="26" width="100" height="124" as="geometry" />
        </mxCell>
        <mxCell id="T82bKqfR7qC3l-Xf6_zX-5" value="&lt;u&gt;Report&lt;/u&gt;" style="html=1;whiteSpace=wrap;align=center;verticalAlign=top;fontStyle=1;width=100;" vertex="1" parent="1">
          <mxGeometry x="400" y="380" width="200" height="250" as="geometry" />
        </mxCell>
        <mxCell id="T82bKqfR7qC3l-Xf6_zX-6" value="- id: bigint&lt;br&gt;- code: varchar&lt;br&gt;- resident_id: bigint&lt;br&gt;- report_category_id: bigint&lt;br&gt;- title: varchar&lt;br&gt;- description: longtext&lt;br&gt;- image: varchar&lt;br&gt;- latitude: varchar&lt;br&gt;- longitude: varchar&lt;br&gt;- address: varchar&lt;br&gt;- urgency_level: int&lt;br&gt;- initial_urgency: int&lt;br&gt;- deleted_at: timestamp&lt;br&gt;- created_at: timestamp&lt;br&gt;- updated_at: timestamp" style="html=1;whiteSpace=wrap;align=left;verticalAlign=top;width=100;" vertex="1" parent="T82bKqfR7qC3l-Xf6_zX-5">
          <mxGeometry y="26" width="100" height="224" as="geometry" />
        </mxCell>
        <mxCell id="T82bKqfR7qC3l-Xf6_zX-7" value="&lt;u&gt;ReportCategory&lt;/u&gt;" style="html=1;whiteSpace=wrap;align=center;verticalAlign=top;fontStyle=1;width=100;" vertex="1" parent="1">
          <mxGeometry x="400" y="80" width="160" height="120" as="geometry" />
        </mxCell>
        <mxCell id="T82bKqfR7qC3l-Xf6_zX-8" value="- id: bigint&lt;br&gt;- name: varchar&lt;br&gt;- image: varchar&lt;br&gt;- deleted_at: timestamp&lt;br&gt;- created_at: timestamp&lt;br&gt;- updated_at: timestamp" style="html=1;whiteSpace=wrap;align=left;verticalAlign=top;width=100;" vertex="1" parent="T82bKqfR7qC3l-Xf6_zX-7">
          <mxGeometry y="26" width="100" height="94" as="geometry" />
        </mxCell>
        <mxCell id="T82bKqfR7qC3l-Xf6_zX-9" value="&lt;u&gt;ReportStatus&lt;/u&gt;" style="html=1;whiteSpace=wrap;align=center;verticalAlign=top;fontStyle=1;width=100;" vertex="1" parent="1">
          <mxGeometry x="700" y="380" width="160" height="150" as="geometry" />
        </mxCell>
        <mxCell id="T82bKqfR7qC3l-Xf6_zX-10" value="- id: bigint&lt;br&gt;- report_id: bigint&lt;br&gt;- image: varchar&lt;br&gt;- status: enum&lt;br&gt;- description: longtext&lt;br&gt;- deleted_at: timestamp&lt;br&gt;- created_at: timestamp&lt;br&gt;- updated_at: timestamp" style="html=1;whiteSpace=wrap;align=left;verticalAlign=top;width=100;" vertex="1" parent="T82bKqfR7qC3l-Xf6_zX-9">
          <mxGeometry y="26" width="100" height="124" as="geometry" />
        </mxCell>
        <mxCell id="T82bKqfR7qC3l-Xf6_zX-11" value="&lt;u&gt;Feedback&lt;/u&gt;" style="html=1;whiteSpace=wrap;align=center;verticalAlign=top;fontStyle=1;width=100;" vertex="1" parent="1">
          <mxGeometry x="700" y="80" width="160" height="150" as="geometry" />
        </mxCell>
        <mxCell id="T82bKqfR7qC3l-Xf6_zX-12" value="- id: bigint&lt;br&gt;- report_id: bigint&lt;br&gt;- user_id: bigint&lt;br&gt;- impression: text&lt;br&gt;- message: text&lt;br&gt;- satisfaction: tinyint&lt;br&gt;- created_at: timestamp&lt;br&gt;- updated_at: timestamp" style="html=1;whiteSpace=wrap;align=left;verticalAlign=top;width=100;" vertex="1" parent="T82bKqfR7qC3l-Xf6_zX-11">
          <mxGeometry y="26" width="100" height="124" as="geometry" />
        </mxCell>
        <mxCell id="T82bKqfR7qC3l-Xf6_zX-13" value="1" style="text;html=1;align=center;verticalAlign=middle;resizable=0;points=[];autosize=1;strokeColor=none;fillColor=none;" vertex="1" parent="1">
          <mxGeometry x="250" y="340" width="30" height="30" as="geometry" />
        </mxCell>
        <mxCell id="T82bKqfR7qC3l-Xf6_zX-14" value="1" style="text;html=1;align=center;verticalAlign=middle;resizable=0;points=[];autosize=1;strokeColor=none;fillColor=none;" vertex="1" parent="1">
          <mxGeometry x="250" y="300" width="30" height="30" as="geometry" />
        </mxCell>
        <mxCell id="T82bKqfR7qC3l-Xf6_zX-15" value="1" style="text;html=1;align=center;verticalAlign=middle;resizable=0;points=[];autosize=1;strokeColor=none;fillColor=none;" vertex="1" parent="1">
          <mxGeometry x="340" y="440" width="30" height="30" as="geometry" />
        </mxCell>
        <mxCell id="T82bKqfR7qC3l-Xf6_zX-16" value="1" style="text;html=1;align=center;verticalAlign=middle;resizable=0;points=[];autosize=1;strokeColor=none;fillColor=none;" vertex="1" parent="1">
          <mxGeometry x="340" y="480" width="30" height="30" as="geometry" />
        </mxCell>
        <mxCell id="T82bKqfR7qC3l-Xf6_zX-17" value="1" style="text;html=1;align=center;verticalAlign=middle;resizable=0;points=[];autosize=1;strokeColor=none;fillColor=none;" vertex="1" parent="1">
          <mxGeometry x="640" y="440" width="30" height="30" as="geometry" />
        </mxCell>
        <mxCell id="T82bKqfR7qC3l-Xf6_zX-18" value="1" style="text;html=1;align=center;verticalAlign=middle;resizable=0;points=[];autosize=1;strokeColor=none;fillColor=none;" vertex="1" parent="1">
          <mxGeometry x="640" y="160" width="30" height="30" as="geometry" />
        </mxCell>
        <mxCell id="T82bKqfR7qC3l-Xf6_zX-19" value="1" style="text;html=1;align=center;verticalAlign=middle;resizable=0;points=[];autosize=1;strokeColor=none;fillColor=none;" vertex="1" parent="1">
          <mxGeometry x="640" y="120" width="30" height="30" as="geometry" />
        </mxCell>
        <mxCell id="T82bKqfR7qC3l-Xf6_zX-20" value="&lt;font style=&quot;font-size: 16px;&quot;&gt;hasOne&lt;/font&gt;" style="text;html=1;align=center;verticalAlign=middle;resizable=0;points=[];autosize=1;strokeColor=none;fillColor=none;" vertex="1" parent="1">
          <mxGeometry x="260" y="320" width="60" height="30" as="geometry" />
        </mxCell>
        <mxCell id="T82bKqfR7qC3l-Xf6_zX-21" value="&lt;font style=&quot;font-size: 16px;&quot;&gt;hasMany&lt;/font&gt;" style="text;html=1;align=center;verticalAlign=middle;resizable=0;points=[];autosize=1;strokeColor=none;fillColor=none;" vertex="1" parent="1">
          <mxGeometry x="610" y="420" width="70" height="30" as="geometry" />
        </mxCell>
        <mxCell id="T82bKqfR7qC3l-Xf6_zX-22" value="&lt;font style=&quot;font-size: 16px;&quot;&gt;hasMany&lt;/font&gt;" style="text;html=1;align=center;verticalAlign=middle;resizable=0;points=[];autosize=1;strokeColor=none;fillColor=none;" vertex="1" parent="1">
          <mxGeometry x="610" y="140" width="70" height="30" as="geometry" />
        </mxCell>
        <mxCell id="T82bKqfR7qC3l-Xf6_zX-23" value="&lt;font style=&quot;font-size: 16px;&quot;&gt;belongsTo&lt;/font&gt;" style="text;html=1;align=center;verticalAlign=middle;resizable=0;points=[];autosize=1;strokeColor=none;fillColor=none;" vertex="1" parent="1">
          <mxGeometry x="320" y="420" width="80" height="30" as="geometry" />
        </mxCell>
        <mxCell id="T82bKqfR7qC3l-Xf6_zX-24" value="&lt;font style=&quot;font-size: 16px;&quot;&gt;belongsTo&lt;/font&gt;" style="text;html=1;align=center;verticalAlign=middle;resizable=0;points=[];autosize=1;strokeColor=none;fillColor=none;" vertex="1" parent="1">
          <mxGeometry x="400" y="320" width="80" height="30" as="geometry" />
        </mxCell>
        <mxCell id="T82bKqfR7qC3l-Xf6_zX-25" value="&lt;font style=&quot;font-size: 16px;&quot;&gt;belongsTo&lt;/font&gt;" style="text;html=1;align=center;verticalAlign=middle;resizable=0;points=[];autosize=1;strokeColor=none;fillColor=none;" vertex="1" parent="1">
          <mxGeometry x="780" y="230" width="80" height="30" as="geometry" />
        </mxCell>
        <mxCell id="T82bKqfR7qC3l-Xf6_zX-26" value="&lt;font style=&quot;font-size: 16px;&quot;&gt;belongsTo&lt;/font&gt;" style="text;html=1;align=center;verticalAlign=middle;resizable=0;points=[];autosize=1;strokeColor=none;fillColor=none;" vertex="1" parent="1">
          <mxGeometry x="780" y="350" width="80" height="30" as="geometry" />
        </mxCell>
        <mxCell id="T82bKqfR7qC3l-Xf6_zX-27" value="&lt;font style=&quot;font-size: 16px;&quot;&gt;belongsTo&lt;/font&gt;" style="text;html=1;align=center;verticalAlign=middle;resizable=0;points=[];autosize=1;strokeColor=none;fillColor=none;" vertex="1" parent="1">
          <mxGeometry x="490" y="200" width="80" height="30" as="geometry" />
        </mxCell>
        <mxCell id="T82bKqfR7qC3l-Xf6_zX-28" value="1" style="text;html=1;align=center;verticalAlign=middle;resizable=0;points=[];autosize=1;strokeColor=none;fillColor=none;" vertex="1" parent="1">
          <mxGeometry x="490" y="230" width="30" height="30" as="geometry" />
        </mxCell>
        <mxCell id="T82bKqfR7qC3l-Xf6_zX-29" value="&lt;font style=&quot;font-size: 16px;&quot;&gt;hasOne&lt;/font&gt;" style="text;html=1;align=center;verticalAlign=middle;resizable=0;points=[];autosize=1;strokeColor=none;fillColor=none;" vertex="1" parent="1">
          <mxGeometry x="610" y="590" width="60" height="30" as="geometry" />
        </mxCell>
        <mxCell id="T82bKqfR7qC3l-Xf6_zX-30" value="1" style="text;html=1;align=center;verticalAlign=middle;resizable=0;points=[];autosize=1;strokeColor=none;fillColor=none;" vertex="1" parent="1">
          <mxGeometry x="640" y="550" width="30" height="30" as="geometry" />
        </mxCell>
        <mxCell id="T82bKqfR7qC3l-Xf6_zX-31" value="1" style="text;html=1;align=center;verticalAlign=middle;resizable=0;points=[];autosize=1;strokeColor=none;fillColor=none;" vertex="1" parent="1">
          <mxGeometry x="640" y="600" width="30" height="30" as="geometry" />
        </mxCell>
        <mxCell id="T82bKqfR7qC3l-Xf6_zX-32" value="&lt;font style=&quot;font-size: 16px;&quot;&gt;hasMany&lt;/font&gt;" style="text;html=1;align=center;verticalAlign=middle;resizable=0;points=[];autosize=1;strokeColor=none;fillColor=none;" vertex="1" parent="1">
          <mxGeometry x="580" y="270" width="70" height="30" as="geometry" />
        </mxCell>
        <mxCell id="T82bKqfR7qC3l-Xf6_zX-33" value="*" style="text;html=1;align=center;verticalAlign=middle;resizable=0;points=[];autosize=1;strokeColor=none;fillColor=none;" vertex="1" parent="1">
          <mxGeometry x="590" y="300" width="30" height="30" as="geometry" />
        </mxCell>
        <mxCell id="T82bKqfR7qC3l-Xf6_zX-34" value="*" style="text;html=1;align=center;verticalAlign=middle;resizable=0;points=[];autosize=1;strokeColor=none;fillColor=none;" vertex="1" parent="1">
          <mxGeometry x="670" y="380" width="30" height="30" as="geometry" />
        </mxCell>
        <mxCell id="T82bKqfR7qC3l-Xf6_zX-35" value="*" style="text;html=1;align=center;verticalAlign=middle;resizable=0;points=[];autosize=1;strokeColor=none;fillColor=none;" vertex="1" parent="1">
          <mxGeometry x="670" y="60" width="30" height="30" as="geometry" />
        </mxCell>
        <mxCell id="T82bKqfR7qC3l-Xf6_zX-36" value="*" style="text;html=1;align=center;verticalAlign=middle;resizable=0;points=[];autosize=1;strokeColor=none;fillColor=none;" vertex="1" parent="1">
          <mxGeometry x="370" y="160" width="30" height="30" as="geometry" />
        </mxCell>
        <mxCell id="T82bKqfR7qC3l-Xf6_zX-37" value="*" style="text;html=1;align=center;verticalAlign=middle;resizable=0;points=[];autosize=1;strokeColor=none;fillColor=none;" vertex="1" parent="1">
          <mxGeometry x="370" y="380" width="30" height="30" as="geometry" />
        </mxCell>
        <mxCell id="T82bKqfR7qC3l-Xf6_zX-38" value="*" style="text;html=1;align=center;verticalAlign=middle;resizable=0;points=[];autosize=1;strokeColor=none;fillColor=none;" vertex="1" parent="1">
          <mxGeometry x="270" y="440" width="30" height="30" as="geometry" />
        </mxCell>
        <mxCell id="T82bKqfR7qC3l-Xf6_zX-39" value="*" style="text;html=1;align=center;verticalAlign=middle;resizable=0;points=[];autosize=1;strokeColor=none;fillColor=none;" vertex="1" parent="1">
          <mxGeometry x="400" y="270" width="30" height="30" as="geometry" />
        </mxCell>
        <mxCell id="T82bKqfR7qC3l-Xf6_zX-40" value="*" style="text;html=1;align=center;verticalAlign=middle;resizable=0;points=[];autosize=1;strokeColor=none;fillColor=none;" vertex="1" parent="1">
          <mxGeometry x="610" y="550" width="30" height="30" as="geometry" />
        </mxCell>
        <mxCell id="T82bKqfR7qC3l-Xf6_zX-41" value="*" style="text;html=1;align=center;verticalAlign=middle;resizable=0;points=[];autosize=1;strokeColor=none;fillColor=none;" vertex="1" parent="1">
          <mxGeometry x="670" y="200" width="30" height="30" as="geometry" />
        </mxCell>
        <mxCell id="T82bKqfR7qC3l-Xf6_zX-42" value="*" style="text;html=1;align=center;verticalAlign=middle;resizable=0;points=[];autosize=1;strokeColor=none;fillColor=none;" vertex="1" parent="1">
          <mxGeometry x="670" y="350" width="30" height="30" as="geometry" />
        </mxCell>
        <mxCell id="T82bKqfR7qC3l-Xf6_zX-43" value="*" style="text;html=1;align=center;verticalAlign=middle;resizable=0;points=[];autosize=1;strokeColor=none;fillColor=none;" vertex="1" parent="1">
          <mxGeometry x="470" y="200" width="30" height="30" as="geometry" />
        </mxCell>
        <mxCell id="T82bKqfR7qC3l-Xf6_zX-44" value="&lt;font style=&quot;font-size: 16px;&quot;&gt;hasMany&lt;/font&gt;" style="text;html=1;align=center;verticalAlign=middle;resizable=0;points=[];autosize=1;strokeColor=none;fillColor=none;" vertex="1" parent="1">
          <mxGeometry x="270" y="440" width="70" height="30" as="geometry" />
        </mxCell>
        <mxCell id="T82bKqfR7qC3l-Xf6_zX-45" value="&lt;font style=&quot;font-size: 16px;&quot;&gt;hasMany&lt;/font&gt;" style="text;html=1;align=center;verticalAlign=middle;resizable=0;points=[];autosize=1;strokeColor=none;fillColor=none;" vertex="1" parent="1">
          <mxGeometry x="400" y="270" width="70" height="30" as="geometry" />
        </mxCell>
        <mxCell id="T82bKqfR7qC3l-Xf6_zX-46" value="&lt;font style=&quot;font-size: 16px;&quot;&gt;belongsTo&lt;/font&gt;" style="text;html=1;align=center;verticalAlign=middle;resizable=0;points=[];autosize=1;strokeColor=none;fillColor=none;" vertex="1" parent="1">
          <mxGeometry x="270" y="480" width="80" height="30" as="geometry" />
        </mxCell>
        <mxCell id="T82bKqfR7qC3l-Xf6_zX-47" value="" style="endArrow=none;html=1;rounded=0;edgeStyle=orthogonalEdgeStyle;entryX=0.5;entryY=0;entryDx=0;entryDy=0;startArrow=diamondThin;startFill=0;endFill=0;" edge="1" parent="1" source="T82bKqfR7qC3l-Xf6_zX-1" target="T82bKqfR7qC3l-Xf6_zX-3">
          <mxGeometry width="100" height="100" relative="1" as="geometry">
            <mxPoint x="180" y="290" as="sourcePoint" />
            <mxPoint x="180" y="380" as="targetPoint" />
          </mxGeometry>
        </mxCell>
        <mxCell id="T82bKqfR7qC3l-Xf6_zX-48" value="" style="endArrow=none;html=1;rounded=0;edgeStyle=orthogonalEdgeStyle;entryX=0.5;entryY=0;entryDx=0;entryDy=0;startArrow=diamondThin;startFill=0;endFill=0;" edge="1" parent="1" source="T82bKqfR7qC3l-Xf6_zX-3" target="T82bKqfR7qC3l-Xf6_zX-5">
          <mxGeometry width="100" height="100" relative="1" as="geometry">
            <mxPoint x="270" y="455" as="sourcePoint" />
            <mxPoint x="400" y="455" as="targetPoint" />
            <Array as="points">
              <mxPoint x="330" y="455" />
              <mxPoint x="330" y="455" />
            </Array>
          </mxGeometry>
        </mxCell>
        <mxCell id="T82bKqfR7qC3l-Xf6_zX-49" value="" style="endArrow=none;html=1;rounded=0;edgeStyle=orthogonalEdgeStyle;entryX=0.5;entryY=1;entryDx=0;entryDy=0;startArrow=diamondThin;startFill=0;endFill=0;" edge="1" parent="1" source="T82bKqfR7qC3l-Xf6_zX-5" target="T82bKqfR7qC3l-Xf6_zX-7">
          <mxGeometry width="100" height="100" relative="1" as="geometry">
            <mxPoint x="500" y="370" as="sourcePoint" />
            <mxPoint x="500" y="200" as="targetPoint" />
          </mxGeometry>
        </mxCell>
        <mxCell id="T82bKqfR7qC3l-Xf6_zX-50" value="" style="endArrow=none;html=1;rounded=0;edgeStyle=orthogonalEdgeStyle;entryX=0.5;entryY=0;entryDx=0;entryDy=0;startArrow=diamondThin;startFill=0;endFill=0;" edge="1" parent="1" source="T82bKqfR7qC3l-Xf6_zX-5" target="T82bKqfR7qC3l-Xf6_zX-9">
          <mxGeometry width="100" height="100" relative="1" as="geometry">
            <mxPoint x="610" y="455" as="sourcePoint" />
            <mxPoint x="700" y="455" as="targetPoint" />
            <Array as="points">
              <mxPoint x="650" y="455" />
              <mxPoint x="650" y="455" />
            </Array>
          </mxGeometry>
        </mxCell>
        <mxCell id="T82bKqfR7qC3l-Xf6_zX-51" value="" style="endArrow=none;html=1;rounded=0;edgeStyle=orthogonalEdgeStyle;entryX=0.5;entryY=1;entryDx=0;entryDy=0;startArrow=diamondThin;startFill=0;endFill=0;" edge="1" parent="1" source="T82bKqfR7qC3l-Xf6_zX-11" target="T82bKqfR7qC3l-Xf6_zX-1">
          <mxGeometry width="100" height="100" relative="1" as="geometry">
            <mxPoint x="780" y="240" as="sourcePoint" />
            <mxPoint x="780" y="280" as="targetPoint" />
            <Array as="points">
              <mxPoint x="780" y="290" />
              <mxPoint x="180" y="290" />
            </Array>
          </mxGeometry>
        </mxCell>
        <mxCell id="T82bKqfR7qC3l-Xf6_zX-52" value="" style="endArrow=none;html=1;rounded=0;edgeStyle=orthogonalEdgeStyle;entryX=0.5;entryY=1;entryDx=0;entryDy=0;startArrow=diamondThin;startFill=0;endFill=0;" edge="1" parent="1" source="T82bKqfR7qC3l-Xf6_zX-11" target="T82bKqfR7qC3l-Xf6_zX-5">
          <mxGeometry width="100" height="100" relative="1" as="geometry">
            <mxPoint x="780" y="240" as="sourcePoint" />
            <mxPoint x="780" y="380" as="targetPoint" />
            <Array as="points">
              <mxPoint x="780" y="360" />
              <mxPoint x="500" y="360" />
            </Array>
          </mxGeometry>
        </mxCell>
      </root>
    </mxGraphModel>
  </diagram>
</mxfile>